<svg xmlns="http://www.w3.org/2000/svg" display="block" preserveAspectRatio="none" viewBox="0 0 2048 2048"><defs><linearGradient id="l" x1="369.963" x2="359.239" y1="1258.27" y2="1481.69" gradientUnits="userSpaceOnUse"><stop class="stop0" offset="0" stop-color="#fdfdfc" stop-opacity=".875"/><stop class="stop1" offset="1" stop-color="#fefefe"/></linearGradient><linearGradient id="k" x1="628.235" x2="587.507" y1="1265.71" y2="1510.75" gradientUnits="userSpaceOnUse"><stop class="stop0" offset="0" stop-color="#fcfcfc" stop-opacity=".827"/><stop class="stop1" offset="1" stop-color="#fefdfd"/></linearGradient><linearGradient id="j" x1="514.049" x2="507.732" y1="463.018" y2="443.408" gradientUnits="userSpaceOnUse"><stop class="stop0" offset="0" stop-color="#fff" stop-opacity=".765"/><stop class="stop1" offset="1" stop-color="#fff" stop-opacity=".878"/></linearGradient><linearGradient id="i" x1="512.927" x2="602.849" y1="687.961" y2="814.899" gradientUnits="userSpaceOnUse"><stop class="stop0" offset="0" stop-color="#fff" stop-opacity=".925"/><stop class="stop1" offset="1" stop-color="#fff"/></linearGradient><linearGradient id="h" x1="534.967" x2="582.529" y1="645.169" y2="759.439" gradientUnits="userSpaceOnUse"><stop class="stop0" offset="0" stop-color="#fff" stop-opacity=".945"/><stop class="stop1" offset="1" stop-color="#fff"/></linearGradient><linearGradient id="g" x1="1484.73" x2="1540.21" y1="540.995" y2="749.398" gradientUnits="userSpaceOnUse"><stop class="stop0" offset="0" stop-color="#fff" stop-opacity=".969"/><stop class="stop1" offset="1" stop-color="#fff"/></linearGradient><linearGradient id="f" x1="1324.64" x2="1366.49" y1="1298.52" y2="1467.18" gradientUnits="userSpaceOnUse"><stop class="stop0" offset="0" stop-color="#fffffe" stop-opacity=".647"/><stop class="stop1" offset="1" stop-color="#fff" stop-opacity=".792"/></linearGradient><linearGradient id="e" x1="1594.32" x2="1574.81" y1="1295.93" y2="1509.63" gradientUnits="userSpaceOnUse"><stop class="stop0" offset="0" stop-color="#fffffe" stop-opacity=".725"/><stop class="stop1" offset="1" stop-color="#fffeff" stop-opacity=".89"/></linearGradient><linearGradient id="d" x1="1437.89" x2="1442.47" y1="1664.86" y2="1654.3" gradientUnits="userSpaceOnUse"><stop class="stop0" offset="0" stop-color="#fefeff" stop-opacity=".616"/><stop class="stop1" offset="1" stop-color="#fdfcfb" stop-opacity=".71"/></linearGradient><linearGradient id="c" x1="1628.33" x2="1629.34" y1="1681.53" y2="1660.63" gradientUnits="userSpaceOnUse"><stop class="stop0" offset="0" stop-color="#fff" stop-opacity="0"/><stop class="stop1" offset="1" stop-color="#fff" stop-opacity=".039"/></linearGradient><linearGradient id="b" x1="1408.14" x2="1371.9" y1="1701.17" y2="1701.74" gradientUnits="userSpaceOnUse"><stop class="stop0" offset="0" stop-color="#fefcfc" stop-opacity=".706"/><stop class="stop1" offset="1" stop-color="#fff" stop-opacity=".804"/></linearGradient><linearGradient id="a" x1="1523.67" x2="1482.99" y1="1709.97" y2="1708.27" gradientUnits="userSpaceOnUse"><stop class="stop0" offset="0" stop-color="#fdfdfc" stop-opacity=".816"/><stop class="stop1" offset="1" stop-color="#fffefe" stop-opacity=".851"/></linearGradient></defs><path fill="#1d1a1b" d="M1489.53 1054.81c252.84-14.63 469.67 178.49 484.28 431.34 14.61 252.84-178.53 469.65-431.37 484.25-252.83 14.6-469.62-178.52-484.23-431.34-14.61-252.83 178.5-469.63 431.32-484.25m39.93 894.03c241.03-7.57 430.33-209.02 422.89-450.06-7.44-241.03-208.8-430.43-449.83-423.12-241.21 7.32-430.78 208.86-423.34 450.07s209.08 430.67 450.28 423.11"/><path fill="#e3454b" d="M1502.52 1075.66c241.03-7.31 442.39 182.09 449.83 423.12 7.44 241.04-181.86 442.49-422.89 450.06-241.2 7.56-442.84-181.9-450.28-423.11s182.13-442.75 423.34-450.07m8.73 684.94c31.62 10.65 61.18 24.24 90.84 39.54 30.05 15.51 53.97 36.62 79.69 58.11 62.83-54.58 84.13-143.31 25.67-209.42-43.82-49.57-106.36-64.27-170.07-61.41-100.63 6.61-190.26 36.73-267.75 102.2-10.51 8.88-45.66 37.3-50.18 48.62l.27 2.47c5.31 2.33 29.79-3.17 37.78-4.23 85.79-11.4 171.45-2.65 253.75 24.12m53.18-237.67c39.53.5 64.37-10.35 93.19-37.62 56.77-53.7 68.32-157.79 13.42-216.61-15.1-16.18-40.66-25.22-62.59-23.33-82.82 9.89-152.78 106.08-142.7 187.81 6.64 53.85 47.23 83.78 98.68 89.75m-239.18-31.06c46.65-7.52 74.13-27.47 103.31-65.18 38.16-49.3 43.66-134.46-10.64-174.52-14.36-10.6-35.84-15.66-53.96-12.8-40.08 5.49-73.91 33.11-97.91 64.35-23.88 31.1-41.54 76.31-36.01 115.95 7.03 50.41 46.09 76.07 95.21 72.2m346.59 395.33c53.39 11.5 106.65-38.56 94.7-91.34l-1.11-1.17c-5.38 29.4-18.22 52.78-43.41 70.1a107.4 107.4 0 0 1-43.54 17.35c-3.48.52-9.65.49-10.84 2.56 1.88 1.38 2.08 1.58 4.2 2.5"/><path fill="#1d1a1b" d="M1537.38 1587.42c63.71-2.86 126.25 11.84 170.07 61.41 58.46 66.11 37.16 154.84-25.67 209.42-25.72-21.49-49.64-42.6-79.69-58.11-29.66-15.3-59.22-28.89-90.84-39.54-82.3-26.77-167.96-35.52-253.75-24.12-7.99 1.06-32.47 6.56-37.78 4.23l-.27-2.47c4.52-11.32 39.67-39.74 50.18-48.62 77.49-65.47 167.12-95.59 267.75-102.2m113.85 149.44c-.21 19.67-1.59 36.6-2.22 55.75-.56 2.82-.99 4.61-1.09 7.53-.22 7.62-1.23 8.6 4.76 13.69 2.83 2.3 5.34 4.63 8.49 6.38l5.14 4.05c3.73 3.77 7.08 6.52 11.12 9.92 4.75-5.59 7.21-8.65 11.2-14.76 3.76-4.9 6.31-10.2 9.19-15.66 1.03-1.68 2.99-6.56 3.87-8.61 2.67-6.67 5.6-13.02 7.09-20.05 5.69-16.89 6.11-34.57 4.84-52.16-23.91-12.6-37.59-18.98-63.21-27.1.77 9.35.65 21.5.81 31.07zm-38.83 50.66c8.73 5.44 18.24 11.65 27.15 16.63.64-5.69 1.38-11.5 1.81-17.2 2.78-9.75 2.08-54.61 1.52-66.88.04-9.64-.15-17.11-.86-26.71a695 695 0 0 0-47.19-12c-.04 8.79.69 17.53 1.3 26.3.95 23.86 1.15 47.73.62 71.6 3.95 2.26 11.77 7.03 15.65 8.26m-128.11-50.31c13.16 2.87 33.83 10.21 46.8 14.68.03-24.79.06-52.19-1.5-76.95l-.83-.17c-2.99 2.47-2.27 2.75-5.31 2.72-.71-1.61-1.12-3.6-2.31-3.81-10.41-1.81-30.78-1.76-41.11-1.35.07 1.89.21 8.98.58 10.37.37 17.45 2.4 36.87 3.68 54.51m53.76 17.04c17.2 6.6 34.17 13.8 50.86 21.59.44-8.88 1.48-25.71.23-34.07.12-11.24.21-24.63-1.15-35.73l-.12-7.39c-.11-2.19-.54-4.3-.89-6.48.11-3.74.55-7.48-.67-10.95-3.55-2.71-4.74-2.13-9.55-2.83-10.66-1.79-28-4.17-38.74-4.14-1.33 1.98-.81 6.72-.74 9.61-.23 7.81-.33 14.82.51 22.62.13 15.28.68 32.65.26 47.77m105.52-124.43c2.76 18.04 4.18 39.32 5.55 57.57 24.92 7.72 37.94 12.56 61.74 24.38-7.61-36.49-34.9-65.25-67.29-81.95m-217.73 94.26c4.56 2.63 41.77 8.61 50.57 10.72-1.03-15.07-1.89-46.68-3.94-60.02l-.54 1.26c-2.45 3.87-1.64 4.09-4.94 5.07-4.34-1.38-3.96-1.76-3.81-6.75-4.47-2.74-35.29 1.56-40.77 2.83l-1.42.34c.18 7.93 2.55 39.66 4.85 46.55m-11.79-44.39c-3.62-2.93-17.37 1.15-22.23 2.16l-23.07 5.1c1.03 10.91 1.84 21.83 2.45 32.76 15.75.31 31.57 2.22 47.13 4.58-1.08-9.58-4.72-36.6-4.28-44.6m179.06-9.22 1.67 3.5c5.69 1.2 11.16 2.21 16.71 3.96l2.26.02c8.73 2.61 18.45 4.78 27.36 6.95.04-7.54-1.47-18.34-2.32-26.07.06-2.13-.51-5.77-.77-8.01l-.02-2.53-1.66-14.17-.52-7.8c-4.28-2.45-8.11-4.19-12.55-6.28-14.28-5.65-20.41-7.83-35.44-10.26.88 6.19 1.94 15.41 2.13 21.65l2.27 23.62c.35 4.54 1.06 11.04.88 15.42m-226.94-26.11c.34 10.98.58 22 1.35 32.96 2.81.98 7.84.2 10.16-.86 7.6-1.08 17.15-3.3 24.81-4.86l10.15-1.29c-.94-14.2-.59-30.15-.55-44.53l-19.92 7.69-14.51 6zm74.99-27.05c-7.95 2.05-14.79 3.94-22.61 6.43.14 14.77-.03 30.79.5 45.45 6.85-1.14 51.24-4.28 52.95-5.37l.52-1.82c-1.08-10.79-1.12-27.34-1.47-38.56.17-4.36 1.25-9.44-2.21-12.2-8.92 1.48-19.05 3.28-27.68 6.07m-77.07 101.84c-.65-10.12-1.41-20.24-2.27-30.35-10.07 2.61-21.14 5.37-30.84 8.99l-.99.47c-3.04.76-5.33.57-6.61 3.37-1.73 3.77.26 12.94.94 17.27zm219.69-69.08-.38-4.86c-.93-8.43-1.76-32.13-4.48-38.08-5.1.1-16.15-1.02-22.02-1.3-2.87-.39-7.17-.48-10.15-.64l-3.76-.01-4.95-.08-2.29.8c-1.71 5.98.09 51.46.91 60.01l1.52.49c8.92.72 22.04 1.89 30.87 3.29 5.53.53 11.68 3.21 16.24-.14 1.2-3.78-.87-14.87-1.51-19.48m-281.85 31.55-12.81 9.35c-.56 6.04-1 8.85-.15 14.98 4.91-2.1 23.84-9.37 26.17-12.5-.34-6.53-.85-13.04-1.53-19.54-3.91 2.54-7.8 5.11-11.68 7.71m25.93-16.7c-9.41 5.71-7.94 11.13-5.86 21.34-.24 2.73-.35 2.57.7 5.07 4.5-.41 31.95-8.56 37.76-10.39 1.07-3.18.33-4.8-.16-8.42l-.53-2.4.27-1.69c-.04-4.24-.32-6.35-.91-10.58-.11-4.46.69-5.04-1.5-7.76-5.43-.25-13.81 5.73-19.16 8.74-3.31 1.88-7.47 4.09-10.61 6.09m201.34.91c-.12-9.69-.26-53.61-1.91-59.5-2.08-1.1-1.08-.94-2.9-.87-15.62.9-31.22 2.27-46.76 4.12.16 8.57 0 50.82 3.14 54.83l2.98.19c14.05.22 31.74.05 45.45 1.23"/><path fill="#fefefe" fill-opacity=".412" d="M1651.22 1726.91c.72 5.72.59 9.79 8.43 8.85 18.84-13.33 13.8-24.62 41.38-4.55 5.1 14.95 6.14 16.46 2.11 31.64-.73 6.13.1 11.41-.69 16.93-.73 5.11-11.52 11.88-.76 15.37-.88 2.05-2.84 6.93-3.87 8.61-2.01-2.23-.74-1.36-4.66-1.63-4.38 3.94-6.86 9.69-10.89 14.71-2.91 1.73-3.68 2.65-5.92 5.08-7.51 1.26-5.13-7.64-15.18-1.71-3.15-1.75-5.66-4.08-8.49-6.38 1.89-.1.93.14 2.83-.89 1.26-5.47-1.08-11.26-5.85-14.24l-1.74 1.44c.1-2.92.53-4.71 1.09-7.53.43-1.94.7-2.55 1.87-4.15l-.45-1.03c1.53 1.25 1.12.73 3.63 1.08l1.38 1.99.75-2c-.65-2.82-1.36-4.54-.51-7.28 1.5 1.88.98 1.12 2.21 3.09l.83 1.36 1.19-.71c4.42-12.36-7.1-34.68-8.68-48.1z"/><path fill="#fefefe" fill-opacity=".498" d="m1596.13 1707.66 1.05 4.18.53 2.14c10.66 5.81 15.55-.02 26.87.08 2.11.02 14.45 5.33 17.03 6.44l-.04.61 1.31-1.04c.56 12.27 1.26 57.13-1.52 66.88-6.64-2.75-24.45-5.78-28.96.57-3.88-1.23-11.7-6-15.65-8.26.53-23.87.33-47.74-.62-71.6"/><path fill="url(#a)" d="m1528.76 1674.77.83.17c1.56 24.76 1.53 52.16 1.5 76.95-12.97-4.47-33.64-11.81-46.8-14.68-1.28-17.64-3.31-37.06-3.68-54.51l.58-.68c1.34-.34 2.88-.79 3.89-1.56 6.62-5.02 13.44-2.48 21.06-2.15 1.88.08 7.69-1.54 10-2.17 2.05 4.46 2.86 9.29 8.3 8.47 3.02-2.69 3.27-5.77 4.32-9.84"/><path fill="#fefefe" fill-opacity=".788" d="M1537.79 1706.48c.88-5.97-1.46-8.81.98-12.9l1.61-.25c3.51 2.19 6.12 8.12 7.13 8.75 5.2 3.22 24.14 3.2 31.21 4.13q4.53-3.84 9.15-7.56l.12 7.39c-8.35 4.39-2.52 47.89.29 56.66.16-5.55.19-15.79.86-20.93 1.25 8.36.21 25.19-.23 34.07a786 786 0 0 0-50.86-21.59c.42-15.12-.13-32.49-.26-47.77"/><path fill="#fefefe" fill-opacity=".816" d="M1524.39 1605.46c1.82-.07.82-.23 2.9.87 1.65 5.89 1.79 49.81 1.91 59.5-13.71-1.18-31.4-1.01-45.45-1.23l-2.98-.19c-3.14-4.01-2.98-46.26-3.14-54.83 15.54-1.85 31.14-3.22 46.76-4.12"/><path fill="#fefefe" fill-opacity=".867" d="m1420.99 1677.53 1.42-.34c5.48-1.27 36.3-5.57 40.77-2.83-.15 4.99-.53 5.37 3.81 6.75 3.3-.98 2.49-1.2 4.94-5.07-1.85 11.25-3.16 25.98-2.73 37.46.17 4.53 4.11 10.38 3.41 15.46-5.07 1.72-33.52-9.21-45.99-7.33l-.78 2.45c-2.3-6.89-4.67-38.62-4.85-46.55m47.52 51.91c1.24-4.16 1.88-3.84.86-7.27-2.03-1.07-1.91-1.14-4.08-1.77-1.65 4.01-1.71 2.15-.48 5.76z"/><path fill="#fefefe" fill-opacity=".827" d="M1465.29 1720.4c2.17.63 2.05.7 4.08 1.77 1.02 3.43.38 3.11-.86 7.27l-3.7-3.28c-1.23-3.61-1.17-1.75.48-5.76"/><path fill="#fefefe" fill-opacity=".792" d="M1441.16 1617.31c8.63-2.79 18.76-4.59 27.68-6.07.36 4.17 1.12 3.11-.61 5.24l-.18-.75c-.82 3.76-1.89 6.46-.69 10.02 2.7-.69 1.42-.19 3.69-2.31.35 11.22.39 27.77 1.47 38.56-4.28-.6-3.53.23-5.16.31-8 .36-32.31 2.04-38.78.85 6.45-.42 20.47-1.29 26.24-3.56l-.31-1.03c-7.06-3.55-17.17-2.54-25-1.47-2.68.37-3.22 2.44-4.2 4.47-.96-.62-.33-.11-1.31-2.05 3.32-7.92-2.54-23.49 1.21-29.21 4-6.11 11.04-2.68 15.95-13"/><path fill="url(#b)" d="M1414.05 1679.69c-.44 8 3.2 35.02 4.28 44.6-15.56-2.36-31.38-4.27-47.13-4.58-.61-10.93-1.42-21.85-2.45-32.76l23.07-5.1c8.12 2.44 18.97 13.12 22.23-2.16m-5.27 40.07 4.27-.21c4.41-4.95.66-16.83-3.62-21.01-2.96-2.9-7.26-2.45-10.99-2.28-6.06 4.17-7.87 9.64-6.3 16.91 4.16 5.66 9.22 4.54 16.64 6.59"/><path fill="#fefefe" fill-opacity=".592" d="M1398.44 1696.26c3.73-.17 8.03-.62 10.99 2.28 4.28 4.18 8.03 16.06 3.62 21.01l-4.27.21c-7.42-2.05-12.48-.93-16.64-6.59-1.57-7.27.24-12.74 6.3-16.91"/><path fill="#fefefe" fill-opacity=".604" d="M1578.92 1607.13c2.72 5.95 3.55 29.65 4.48 38.08l-1.96-1.46c-5.18 3.66-6.56 10.65-8.39 16.67-8.17-5.24-16.75-4.42-20.8-7.55-1.65-4.48-2.94-8.41-4.34-12.98-1.23 4.38-1.16 6.27-3.88 9.94-6.52-6.89-4.24-17.78-3.59-26.25 2.28 2.19-.17 5.73 1.63 10.94l1.18-.79c.6-4.06.8-6.72 1.02-10.84l1.39-.56c2.13 3.36 1.52 11.04 1.54 15.45 4.66-4.3 13.7-14.76 15.82-20.54 7.78.52 7.9.07 13.94-5.11-.7-1.88-.41-.83-.75-3.2z"/><path fill="#fefefe" fill-opacity=".408" d="m1635.82 1626.32.52 7.8c-5.27.49-4.07-.33-7.97 2.33-2.6 6.62.31 9.14 5.44 12.79 4.1.03.44-.51 4.19-.95l.02 2.53c-2.67 3.31-7.05 9.35-10.63 10.92-1.54-.13-7.22-.91-7.97.04-1.87 2.37-7.93 13.84-7.93 16.15-5.55-1.75-11.02-2.76-16.71-3.96 3.72-2.14 2.66-.63 3.7-4.35-1.14-4.14.04-2.84-2.83-4.73l-1.67.93-.87 4.65c.18-4.38-.53-10.88-.88-15.42.98 1.28.33.76 2.09 1.38 5.11-4.06 5.42-6.22 9.08-10.88 5.04-6.41-.36-9.17 1.58-14.35 3.85-.33 5.37 1.08 6.36 4.36l.52-.81 2.11.26 1.22-.71c1.71.26 16.96-3.68 19.59-4.76z"/><path fill="#fefefe" fill-opacity=".62" d="m1392.17 1633.47 19.92-7.69c-.04 14.38-.39 30.33.55 44.53l-10.15 1.29c-8.83-4.91-7.35-13.1-20.56-14.07-4.01-5.24 2.33-1.22-2.39-7.3l-1.69-2.56.87-2.83c-2.77-1.88-1.25-1.37-4.8-1.3-7.07 4.87-6.38 25.54-6.4 33.78-.77-10.96-1.01-21.98-1.35-32.96l11.49-4.89c9.95.53 12.04-1.06 16.23 7.4 1.11 2.25 1.5 1.97 3.63 2.29 2.83-2.36 1.72-.92 3.04-4.74-.52-3.86-5.44-8.25-8.39-10.95"/><path fill="#fefefe" fill-opacity=".341" d="M1330.98 1697.79c9.7-3.62 20.77-6.38 30.84-8.99.86 10.11 1.62 20.23 2.27 30.35l-39.77-.25c-.68-4.33-2.67-13.5-.94-17.27 1.28-2.8 3.57-2.61 6.61-3.37l-.02 1.52 1.99.69c-8.35 4.61-10.19 12.46-.8 15.73 6.13-2.24 7.26-9.61 7.87-15.5-4.96-2.92-3.15 1.46-8.05-2.91m27.63 18.83c1.14-4.12 2.22-6.68 1.75-10.88-2.73-4.06-4.02-3.36-8.82-3.36-1.62 5.23-1.48 8.93.53 14.04 2.38 2.11 3.6 1.97 6.54.2"/><path fill="#fefefe" fill-opacity=".196" d="M1351.54 1702.38c4.8 0 6.09-.7 8.82 3.36.47 4.2-.61 6.76-1.75 10.88-2.94 1.77-4.16 1.91-6.54-.2-2.01-5.11-2.15-8.81-.53-14.04"/><path fill="#fefefe" fill-opacity=".651" d="m1537.28 1683.86 1.41 2.6c10.39 2.07 23.56 3.83 32.88-2.15l2.06.7c3.1 7.6 5.68 6.53 13.35 7.16.35 2.18.78 4.29.89 6.48q-4.62 3.72-9.15 7.56c-7.07-.93-26.01-.91-31.21-4.13-1.01-.63-3.62-6.56-7.13-8.75l-1.61.25c-2.44 4.09-.1 6.93-.98 12.9-.84-7.8-.74-14.81-.51-22.62"/><path fill="#fefefe" fill-opacity=".475" d="M1536.66 1665.91c-.82-8.55-2.62-54.03-.91-60.01l2.29-.8c.55 5.5-3.92 11.54-.73 20.17l2.15-5.91c.56.03 5.48 1.28 4.47 1.94 6.35-4.16 15.54-6.89 12.97-15.47 5.87.28 16.92 1.4 22.02 1.3l-2.71 1.8c.34 2.37.05 1.32.75 3.2-6.04 5.18-6.16 5.63-13.94 5.11-2.12 5.78-11.16 16.24-15.82 20.54-.02-4.41.59-12.09-1.54-15.45l-1.39.56c-.22 4.12-.42 6.78-1.02 10.84l-1.18.79c-1.8-5.21.65-8.75-1.63-10.94-.65 8.47-2.93 19.36 3.59 26.25 3.6 2.76 5.71 5.51 6.62 9.85-.89 3.47-.3 3.33-3.72 5.28-.82-4.5-1.74-8.91-6.38-10.87-5.32 2.67-4.04 6.35-3.89 11.82"/><path fill="#fefefe" fill-opacity=".396" d="m1358.98 1661.93-.99 2.06c-5.4 1.72-11.78.5-14.31 4.18 1.59 2.59.52 1.67 3.35 2.84 1.5-.16 15.49-2.62 13.01-2.58l-.27 1.69c-3.39 1.59-8.85 3.34-10.98 5.42l-.18 2.07c3.46 3.78 7.14 3.62 11.08.41.28-1.99.48-3.5.61-5.5.49 3.62 1.23 5.24.16 8.42-5.81 1.83-33.26 9.98-37.76 10.39-1.05-2.5-.94-2.34-.7-5.07l2.66-2.58c.98-4.69.47-3.68-1.18-8.92l-.73-.14c-1.37 2.9-.82 8.21-.75 11.64-2.08-10.21-3.55-15.63 5.86-21.34.52.9 1.37 3.19 1.8 4.26 2.51 1.38 1.19 1.14 4.15.55 8.24-7.89 12.98-5.39 25.17-7.8"/><path fill="#fefefe" fill-opacity=".851" d="M1418.55 1623.74c7.82-2.49 14.66-4.38 22.61-6.43-4.91 10.32-11.95 6.89-15.95 13-3.75 5.72 2.11 21.29-1.21 29.21.98 1.94.35 1.43 1.31 2.05l3.27 1.59c6.47 1.19 30.78-.49 38.78-.85 1.63-.08.88-.91 5.16-.31l-.52 1.82c-1.71 1.09-46.1 4.23-52.95 5.37-.53-14.66-.36-30.68-.5-45.45"/><path fill="#fefefe" fill-opacity=".463" d="M1367.52 1677.32c.02-8.24-.67-28.91 6.4-33.78 3.55-.07 2.03-.58 4.8 1.3l-.87 2.83 1.69 2.56c-1.5 3.23-1.87 3.37-1.51 6.98 5.01 6.14 12.44 1.52 14.59 10.15-4.89 5.77-12.83-.04-14.94 9.1-2.32 1.06-7.35 1.84-10.16.86"/><path fill="#fefefe" fill-opacity=".059" d="M1597.18 1711.84c2.63-2.08 1.85-1.36 4.55-1.89 8.29-1.6 13.74-6.22 18.83-12.39 7.68 5.4 21.7 12.39 21.05 22.94-2.58-1.11-14.92-6.42-17.03-6.44-11.32-.1-16.21 5.73-26.87-.08z"/><path fill="#fefefe" fill-opacity=".988" d="m1471.93 1676.04.54-1.26c2.05 13.34 2.91 44.95 3.94 60.02-8.8-2.11-46.01-8.09-50.57-10.72l.78-2.45c12.47-1.88 40.92 9.05 45.99 7.33.7-5.08-3.24-10.93-3.41-15.46-.43-11.48.88-26.21 2.73-37.46"/><path fill="#fefefe" fill-opacity=".525" d="M1544.03 1649.83c2.72-3.67 2.65-5.56 3.88-9.94 1.4 4.57 2.69 8.5 4.34 12.98 4.05 3.13 12.63 2.31 20.8 7.55 1.83-6.02 3.21-13.01 8.39-16.67l1.96 1.46.38 4.86-1.9-1.27c-3.62 3.85-6.77 15.97-12.83 20.89-8.83-1.4-21.95-2.57-30.87-3.29 3.77-.27 5.04-.56 8.75-1.44 3.42-1.95 2.83-1.81 3.72-5.28-.91-4.34-3.02-7.09-6.62-9.85"/><path fill="#fefefe" fill-opacity=".016" d="M1537.28 1683.86c-.07-2.89-.59-7.63.74-9.61 10.74-.03 28.08 2.35 38.74 4.14l-2.19 1.18c-.24 2.03-.27 3.53-.94 5.44l-2.06-.7c-9.32 5.98-22.49 4.22-32.88 2.15z"/><path fill="#fefefe" d="M1312.3 1704.06c1.88-.39.83-.39 3.11.37 1.86 4.63 1.61 9.76 1.8 14.85l-23.45 1.99c-2.27.11-2.16.17-4.31-.5-.9-3.15-.82-2.93.04-6.12 4.6-6.07 15.17-8.19 22.81-10.59"/><path fill="url(#c)" d="M1613.75 1677.95c4.89-7 5.99-6 14.14-8.73 7.26-2.43 7.2-4.96 9.57-11.35l1.33.96c.85 7.73 2.36 18.53 2.32 26.07-8.91-2.17-18.63-4.34-27.36-6.95"/><path fill="#fefefe" fill-opacity=".635" d="M1651.23 1736.86c1.58 13.42 13.1 35.74 8.68 48.1l-1.19.71-.83-1.36c-1.23-1.97-.71-1.21-2.21-3.09-.85 2.74-.14 4.46.51 7.28l-.75 2-1.38-1.99c-2.51-.35-2.1.17-3.63-1.08l.45 1.03c-1.17 1.6-1.44 2.21-1.87 4.15.63-19.15 2.01-36.08 2.22-55.75"/><path fill="#fefefe" fill-opacity=".329" d="M1602.95 1625.37c6.38 2.36 8.8 3.19 12.24 8.93l-1.22.71-2.11-.26-.52.81c-.99-3.28-2.51-4.69-6.36-4.36-1.94 5.18 3.46 7.94-1.58 14.35-3.66 4.66-3.97 6.82-9.08 10.88-1.76-.62-1.11-.1-2.09-1.38l-2.27-23.62c.79 2.14.72 2.16 2.09 3.96l2.6.26c3.67-2.52 5.51-6.43 8.3-10.28"/><path fill="#fefefe" fill-opacity=".694" d="M1480.03 1672.33c10.33-.41 30.7-.46 41.11 1.35 1.19.21 1.6 2.2 2.31 3.81 3.04.03 2.32-.25 5.31-2.72-1.05 4.07-1.3 7.15-4.32 9.84-5.44.82-6.25-4.01-8.3-8.47-2.31.63-8.12 2.25-10 2.17-7.62-.33-14.44-2.87-21.06 2.15-1.01.77-2.55 1.22-3.89 1.56l-.58.68c-.37-1.39-.51-8.48-.58-10.37"/><path fill="#fefefe" fill-opacity=".251" d="m1289.12 1690.97 12.81-9.35c.55 4.24.37 5.24 2.65 8.66 3.79 2.54 5.89 2.44 10.56 3.17-2.33 3.13-21.26 10.4-26.17 12.5-.85-6.13-.41-8.94.15-14.98"/><path fill="#fefefe" d="M1280.87 1696.93c2.02 3.42 1.4 8.17 1.55 12.71-10.47 4.52-20.42 9.74-31.09 14.23l-.71-.34c2.56-5.22 24.76-22.34 30.25-26.6"/><path fill="#fefefe" fill-opacity=".039" d="M1623.27 1620.04c4.44 2.09 8.27 3.83 12.55 6.28l-1.04 3.22c-2.63 1.08-17.88 5.02-19.59 4.76-3.44-5.74-5.86-6.57-12.24-8.93 5.69-2.75 12.82-2.13 20.32-5.33"/><path fill="#fefefe" fill-opacity=".275" d="M1638.02 1650.82c.26 2.24.83 5.88.77 8.01l-1.33-.96c-2.37 6.39-2.31 8.92-9.57 11.35-8.15 2.73-9.25 1.73-14.14 8.73l-2.26-.02c0-2.31 6.06-13.78 7.93-16.15.75-.95 6.43-.17 7.97-.04 3.58-1.57 7.96-7.61 10.63-10.92"/><path fill="#fefefe" fill-opacity=".941" d="M1588.28 1762.7c-2.81-8.77-8.64-52.27-.29-56.66 1.36 11.1 1.27 24.49 1.15 35.73-.67 5.14-.7 15.38-.86 20.93"/><path fill="#fefefe" fill-opacity=".322" d="m1538.04 1605.1 4.95.08.28 6.3c2.65 2.23 1.15 1.59 4.77 1.8 3.21-1.98 2.03-.67 3.71-4.02l-.69-2.43c-1.93-.95-2.23-1.07-4.31-1.64 2.98.16 7.28.25 10.15.64 2.57 8.58-6.62 11.31-12.97 15.47 1.01-.66-3.91-1.91-4.47-1.94l-2.15 5.91c-3.19-8.63 1.28-14.67.73-20.17"/><path fill="#fefefe" fill-opacity=".451" d="M1569.05 1669.69c6.06-4.92 9.21-17.04 12.83-20.89l1.9 1.27c.64 4.61 2.71 15.7 1.51 19.48-4.56 3.35-10.71.67-16.24.14"/><path fill="#fefefe" fill-opacity=".58" d="M1379.54 1650.23c4.72 6.08-1.62 2.06 2.39 7.3 13.21.97 11.73 9.16 20.56 14.07-7.66 1.56-17.21 3.78-24.81 4.86 2.11-9.14 10.05-3.33 14.94-9.1-2.15-8.63-9.58-4.01-14.59-10.15-.36-3.61.01-3.75 1.51-6.98"/><path fill="#fefefe" fill-opacity=".043" d="M1313.61 1673.91c.68 6.5 1.19 13.01 1.53 19.54-4.67-.73-6.77-.63-10.56-3.17-2.28-3.42-2.1-4.42-2.65-8.66 3.88-2.6 7.77-5.17 11.68-7.71"/><path fill="#fefefe" fill-opacity=".012" d="M1330.98 1697.79c4.9 4.37 3.09-.01 8.05 2.91-.61 5.89-1.74 13.26-7.87 15.5-9.39-3.27-7.55-11.12.8-15.73l-1.99-.69.02-1.52z"/><path fill="url(#d)" d="M1425.31 1661.57c.98-2.03 1.52-4.1 4.2-4.47 7.83-1.07 17.94-2.08 25 1.47l.31 1.03c-5.77 2.27-19.79 3.14-26.24 3.56z"/><path fill="#fefefe" fill-opacity=".271" d="M1338.47 1658.83c5.16 3.15 14.29 1.34 20.41.26l.1 2.84c-12.19 2.41-16.93-.09-25.17 7.8-2.96.59-1.64.83-4.15-.55-.43-1.07-1.28-3.36-1.8-4.26 3.14-2 7.3-4.21 10.61-6.09"/><path fill="#fefefe" fill-opacity=".275" d="M1701.69 1795.15c-10.76-3.49.03-10.26.76-15.37.79-5.52-.04-10.8.69-16.93 1.4 4.17 2.51 7.83 4.45 11.79l1.19.46c-1.49 7.03-4.42 13.38-7.09 20.05"/><path fill="#fefefe" fill-opacity=".757" d="m1377.66 1639.47 14.51-6c2.95 2.7 7.87 7.09 8.39 10.95-1.32 3.82-.21 2.38-3.04 4.74-2.13-.32-2.52-.04-3.63-2.29-4.19-8.46-6.28-6.87-16.23-7.4"/><path fill="#fefefe" fill-opacity=".02" d="M1338.47 1658.83c5.35-3.01 13.73-8.99 19.16-8.74 2.19 2.72 1.39 3.3 1.5 7.76l-.25 1.24c-6.12 1.08-15.25 2.89-20.41-.26"/><path fill="#fefefe" fill-opacity=".329" d="M1391.82 1681.85c4.86-1.01 18.61-5.09 22.23-2.16-3.26 15.28-14.11 4.6-22.23 2.16"/><path fill="#fefefe" fill-opacity=".482" d="M1638 1648.29c-3.75.44-.09.98-4.19.95-5.13-3.65-8.04-6.17-5.44-12.79 3.9-2.66 2.7-1.84 7.97-2.33z"/><path fill="#fefefe" fill-opacity=".008" d="m1688.07 1817.67.56 1.75c-3.99 6.11-6.45 9.17-11.2 14.76-4.04-3.4-7.39-6.15-11.12-9.92 5.46 1.12 6.76.83 12.36.18 3.79-3.26 5.1-4.25 9.4-6.77"/><path fill="#fefefe" fill-opacity=".302" d="M1682.27 1816.84c4.03-5.02 6.51-10.77 10.89-14.71 3.92.27 2.65-.6 4.66 1.63-2.88 5.46-5.43 10.76-9.19 15.66l-.56-1.75c-2.08-.6-3.65-.62-5.8-.83"/><path fill="#fefefe" fill-opacity=".086" d="M1682.27 1816.84c2.15.21 3.72.23 5.8.83-4.3 2.52-5.61 3.51-9.4 6.77-5.6.65-6.9.94-12.36-.18l-5.14-4.05c10.05-5.93 7.67 2.97 15.18 1.71 2.24-2.43 3.01-3.35 5.92-5.08"/><path fill="#fefefe" fill-opacity=".525" d="M1359.13 1657.85c.59 4.23.87 6.34.91 10.58 2.48-.04-11.51 2.42-13.01 2.58-2.83-1.17-1.76-.25-3.35-2.84 2.53-3.68 8.91-2.46 14.31-4.18l.99-2.06-.1-2.84z"/><path fill="#fefefe" fill-opacity=".016" d="m1647.92 1800.14 1.74-1.44c4.77 2.98 7.11 8.77 5.85 14.24-1.9 1.03-.94.79-2.83.89-5.99-5.09-4.98-6.07-4.76-13.69"/><path fill="#fefefe" fill-opacity=".067" d="M1360.3 1672.52c-.13 2-.33 3.51-.61 5.5-3.94 3.21-7.62 3.37-11.08-.41l.18-2.07c2.13-2.08 7.59-3.83 10.98-5.42z"/><path fill="#fefefe" fill-opacity=".275" d="m1542.99 1605.18 3.76.01c2.08.57 2.38.69 4.31 1.64l.69 2.43c-1.68 3.35-.5 2.04-3.71 4.02-3.62-.21-2.12.43-4.77-1.8z"/><path fill="#fefefe" d="M1281.65 1716.02c2.03 3.47 1.76 1.74 1.68 5.17-3.22 2.07-8.32 1.72-12.35 1.88l-1.14-.44c1.72-2.43 8.71-5.16 11.81-6.61"/><path fill="#fefefe" fill-opacity=".741" d="M1468.84 1611.24c3.46 2.76 2.38 7.84 2.21 12.2-2.27 2.12-.99 1.62-3.69 2.31-1.2-3.56-.13-6.26.69-10.02l.18.75c1.73-2.13.97-1.07.61-5.24"/><path fill="#fefefe" fill-opacity=".212" d="m1593.11 1670.47.87-4.65 1.67-.93c2.87 1.89 1.69.59 2.83 4.73-1.04 3.72.02 2.21-3.7 4.35z"/><path fill="#fefefe" fill-opacity=".278" d="M1322 1686.26c-.07-3.43-.62-8.74.75-11.64l.73.14c1.65 5.24 2.16 4.23 1.18 8.92z"/><path fill="#1d1a1b" d="M1608.45 1245.37c21.93-1.89 47.49 7.15 62.59 23.33 54.9 58.82 43.35 162.91-13.42 216.61-28.82 27.27-53.66 38.12-93.19 37.62-51.45-5.97-92.04-35.9-98.68-89.75-10.08-81.73 59.88-177.92 142.7-187.81m-120.2 214.92c7.33 20.72 22.95 33.94 42.65 42.64 56.04 24.74 123.4-11.87 145.65-66.52 6.73-10.2 12.23-32.78 13.46-44.88 3.81-37.51-1.58-71.54-25.29-101.37l-2.57-2.48c-8.48-8.8-15.84-12.76-26.97-17.08-9.22-4.19-20.23-3.69-30.02-3.26-26.29 4.61-44.11 14.49-64.01 32.37a171.4 171.4 0 0 0-28.33 32.32c-2.13 3.28-6.47 9.55-8.11 12.78-18.55 33.15-28.85 66.98-19.88 105.81.63 2.71 2.18 7.23 3.42 9.67"/><path fill="url(#e)" d="M1664.72 1290.16c23.71 29.83 29.1 63.86 25.29 101.37-1.23 12.1-6.73 34.68-13.46 44.88-2.97 1.41-18.31 27.59-23.72 32.96-25.81 25.61-55.63 35.29-91.03 38.31l4.16.15c-8.89.79-19.71.6-27.38-4.57 3.44.3 5.93.54 9.37.47l.04-1.09c-2.25-.76-2.96-.91-5.31-1.07-8.61-.57-13.22-7.59-22.38-7.73-3.81-.06-13.28-9.19-15.7-11.99-7.48-8.03-7.52-14.82-16.35-21.56-1.24-2.44-2.79-6.96-3.42-9.67-8.97-38.83 1.33-72.66 19.88-105.81.43 4.9-.02 5.85 4.23 8.51l2.36-.65c3.02-2.9 2.91-3.57 4.02-7.82 2.19-1.19 3.57-2.25 5.51-3.8l1.23-1c12.25-9.81 11.88-21.44 28.8-28.59 17.46 1.19 38.79-15.22 58.03-17.06 14.6-1.39 48.27 16.75 58.78 13 2.8-3.13 2.21-1.38 2.15-5.3-2.82-5.11-4.2-5.9-5.1-11.94m-124.63 88.64c-11.3 6.63-21.69 25.74-3.68 28.51 10.77-6.53 23.89-26.41 3.68-28.51m140.22-47.48c-.67 7.45-2.68 18.45.8 24.65 2.71 1.39 1.31 1.29 4.22.78.41-8.6 3.28-21.08-5.02-25.43m-1.8 69.71 2.02 3.93 2 .45c3.93-3.99 4.11-18.34 2.83-23.69-.5 3.17-.14 5.31-2.01 6.73l-.74-4.9c-3.88 5.97-4.8 10.29-4.1 17.48m.2-75.01c-.12-6.21-.88-10.07-5.72-14.38-.54 4.22-1.51 7.52.17 11.25 2.02 2.32 2.62 2.2 5.55 3.13"/><path fill="#1d1a1b" d="M1551.76 1363.24c55.9-6.47 48.24 84.93-7.72 104.38-44.97 7.58-44.15-46.82-28.77-73.74 9.66-16.92 17.41-24.66 36.49-30.64m-15.35 44.07c10.77-6.53 23.89-26.41 3.68-28.51-11.3 6.63-21.69 25.74-3.68 28.51"/><path fill="#fefefe" fill-opacity=".565" d="M1680.31 1331.32c8.3 4.35 5.43 16.83 5.02 25.43-2.91.51-1.51.61-4.22-.78-3.48-6.2-1.47-17.2-.8-24.65"/><path fill="#fefefe" fill-opacity=".596" d="M1685.36 1381.72c1.28 5.35 1.1 19.7-2.83 23.69l-2-.45-2.02-3.93c-.7-7.19.22-11.51 4.1-17.48l.74 4.9c1.87-1.42 1.51-3.56 2.01-6.73"/><path fill="#fefefe" fill-opacity=".6" d="M1672.99 1311.64c4.84 4.31 5.6 8.17 5.72 14.38-2.93-.93-3.53-.81-5.55-3.13-1.68-3.73-.71-7.03-.17-11.25"/><path fill="#fefefe" fill-opacity=".604" d="M1605.16 1267.34c9.79-.43 20.8-.93 30.02 3.26-4.29 12.58 1.93 11.65 7.74 17.69 13.36 16.37 14.96 6.23 22.99 14.62 2.8.34 1.55.72 3.91-.81.06 3.92.65 2.17-2.15 5.3-10.51 3.75-44.18-14.39-58.78-13-19.24 1.84-40.57 18.25-58.03 17.06l-2.5-2.25c2.71-2.07 6.68-1.8 11.03-3.31 13.29-4.62 41.81-13.66 50.63-24.17l4.3-3.99.68-.25.11-1.28c-3.29-2.49-4.96-3.84-7.88-6.73l.16-1.16zm24.47 7.55a3.04 3.04 0 0 0 .72-2.99 3.02 3.02 0 0 0-2.26-2.08c-1.08-.24-2.19.13-2.92.96a3.03 3.03 0 0 0 .22 4.23 3.03 3.03 0 0 0 4.24-.12"/><path fill="#fefefe" fill-opacity=".667" d="M1625.17 1270.78c.73-.83 1.84-1.2 2.92-.96 1.08.23 1.94 1.03 2.26 2.08.32 1.06.04 2.2-.72 2.99a3.03 3.03 0 0 1-4.24.12 3.03 3.03 0 0 1-.22-4.23"/><path fill="#fefefe" fill-opacity=".537" d="M1541.15 1299.71c1.17 1.92 1.27 2.03 2.83 3.64 4.66.7 17.14-8.37 21.51-11.07 4.96-3.99 9.81-.99 15.46-3.67 10.99-5.22 20.89-12.75 33.37-10.87l-4.3 3.99c-10.07 4.1-61.45 22.65-67.41 28.66 2.7-.3 3.14-.4 5.75-1.18l2.5 2.25c-16.92 7.15-16.55 18.78-28.8 28.59l-1.23 1c-1.94 1.55-3.32 2.61-5.51 3.8 2.36-3.08 2.29-1.74 2.22-4.55l-.69.13c-2.3-3.02-2.36-3.61-3.66-7.32l-.37-1.08a171.4 171.4 0 0 1 28.33-32.32"/><path fill="#fefefe" fill-opacity=".976" d="M1488.25 1460.29c8.83 6.74 8.87 13.53 16.35 21.56 2.42 2.8 11.89 11.93 15.7 11.99 9.16.14 13.77 7.16 22.38 7.73 2.35.16 3.06.31 5.31 1.07l-.04 1.09c-3.44.07-5.93-.17-9.37-.47 7.67 5.17 18.49 5.36 27.38 4.57l-4.16-.15c35.4-3.02 65.22-12.7 91.03-38.31 5.41-5.37 20.75-31.55 23.72-32.96-22.25 54.65-89.61 91.26-145.65 66.52-19.7-8.7-35.32-21.92-42.65-42.64"/><path fill="#fefefe" fill-opacity=".173" d="m1605.16 1267.34 2.23.98-.16 1.16c2.92 2.89 4.59 4.24 7.88 6.73l-.11 1.28-.68.25c-12.48-1.88-22.38 5.65-33.37 10.87-5.65 2.68-10.5-.32-15.46 3.67-4.37 2.7-16.85 11.77-21.51 11.07-1.56-1.61-1.66-1.72-2.83-3.64 19.9-17.88 37.72-27.76 64.01-32.37"/><path fill="#fefefe" fill-opacity=".235" d="M1635.18 1270.6c11.13 4.32 18.49 8.28 26.97 17.08-1.08 3.5-.04 2.33-2.75 4.01-6.98-1.64-9.01-3.34-16.48-3.4-5.81-6.04-12.03-5.11-7.74-17.69"/><path fill="#fefefe" fill-opacity=".58" d="M1548.36 1309.21c-2.61.78-3.05.88-5.75 1.18 5.96-6.01 57.34-24.56 67.41-28.66-8.82 10.51-37.34 19.55-50.63 24.17-4.35 1.51-8.32 1.24-11.03 3.31"/><path fill="#fefefe" fill-opacity=".525" d="m1662.15 1287.68 2.57 2.48c.9 6.04 2.28 6.83 5.1 11.94-2.36 1.53-1.11 1.15-3.91.81-8.03-8.39-9.63 1.75-22.99-14.62 7.47.06 9.5 1.76 16.48 3.4 2.71-1.68 1.67-.51 2.75-4.01"/><path fill="#fefefe" fill-opacity=".675" d="m1512.82 1332.03.37 1.08c1.3 3.71 1.36 4.3 3.66 7.32l.69-.13c.07 2.81.14 1.47-2.22 4.55-1.11 4.25-1 4.92-4.02 7.82l-2.36.65c-4.25-2.66-3.8-3.61-4.23-8.51 1.64-3.23 5.98-9.5 8.11-12.78m-3.07 18.02 1.71-4.35c-1.64-2.34-.63-1.35-3.52-2.5l-1.41 4.51c1.29 2.26.39 1.33 3.22 2.34"/><path fill="#fefefe" fill-opacity=".647" d="M1507.94 1343.2c2.89 1.15 1.88.16 3.52 2.5l-1.71 4.35c-2.83-1.01-1.93-.08-3.22-2.34z"/><path fill="#1d1a1b" d="M1363.96 1239.37c18.12-2.86 39.6 2.2 53.96 12.8 54.3 40.06 48.8 125.22 10.64 174.52-29.18 37.71-56.66 57.66-103.31 65.18-49.12 3.87-88.18-21.79-95.21-72.2-5.53-39.64 12.13-84.85 36.01-115.95 24-31.24 57.83-58.86 97.91-64.35m66.08 50.62c-1.53-2.33-3.41-4.86-5.05-7.15l-6.01-6.65c-8.28-8.17-13.61-10.53-24.23-14.48-9.43-2.07-14.74-3.38-24.58-2.29-13 2-21.51 4.67-33.12 10.76-3.17 1.66-6.56 3.37-9.66 5.11-3.72 2.56-9.58 6.32-12.85 9.15-1.94 1.56-5.16 4-6.88 5.6l-9.03 8.16-8.65 9.3c-8.97 11.02-19.55 24.99-24.82 38.26-3.42 6.62-5.25 11.04-7.95 18.03l-2.87 7.97c-6.2 25.63-11.55 57.69 4.05 81.4 27.88 42.38 88.22 32.54 122.98 4.38a163.95 163.95 0 0 0 45.86-51.82c17.42-31.47 21.19-62.37 11.24-96.81-1.62-6.68-5.02-13.03-8.43-18.92"/><path fill="url(#f)" d="m1288.72 1313.94 1.09.3c3.14 4.48-3.94 7.1-4.41 13.97.79-.19 13.25-11.08 15.73-12.89 6.06-4.41 15.49-16.9 25.06-12.09 5.77 2.9 10.81-1.55 15.25-5.12 20.87-16.78 35.45-15.46 59.05-6.96-.11-1.66-.16-.82.17-2.51 4.35-.16 4.19-.11 8.4 1.23 7.13 9.21 20.8 20.96 20.98.12 3.41 5.89 6.81 12.24 8.43 18.92-2.84 11.79 5.28 35.76-.39 59.72l-.95.23c-.48-3.98-.25-5.31-3-8.21l-2.66-.82c-4.32 2.38-4 4.88-3.34 9.52l-3.54-3c-9.18-37.75-41.02-27.03-61.32-4.66-.45-3.92-.24-5.75-2.78-8.72-10.34-5.82-17.5 1.89-21.05 11.46-4.68 12.59-8.13 29.43-6.4 42.83.28 1.71 3.06 4.28 4.3 5.44 2.28 6.88-3.67 12.34 1.11 17.5 3.91-1.82 3.52-4.68 3.89-8.65 5.42 17.15 11.35 24.58 30.42 25.7l1.4.66c2.23 1.03 3.7 1.36 6.07 2.01 2.01 2.71 1.69 3.49 1.14 7.62-34.76 28.16-95.1 38-122.98-4.38-15.6-23.71-10.25-55.77-4.05-81.4 2.77 3.39 1.89 3.34 2.41 8.64l2.89 1.24c8.72-1.37 10.28-12.75 4.98-18.14-4.14-1.35-2.61-1.05-7.41.29 2.7-6.99 4.53-11.41 7.95-18.03.59 3.43.69 7 3.17 9.2 2.53-.81 5.21-5.51 7.24-8.21 14.15-4.6 1.32-17.01 13.15-32.81m-25.66 136.7c-.04-5.19.74-4.9-1.46-8.83l-3.77-1.76c.07 3.59-.3 5.79 1.69 8.72 1.79 1.16 1.57 1.23 3.54 1.87"/><path fill="#fefefe" fill-opacity=".682" d="m1257.83 1440.05 3.77 1.76c2.2 3.93 1.42 3.64 1.46 8.83-1.97-.64-1.75-.71-3.54-1.87-1.99-2.93-1.62-5.13-1.69-8.72"/><path fill="#1d1a1b" d="M1438.47 1308.91c9.95 34.44 6.18 65.34-11.24 96.81a163.95 163.95 0 0 1-45.86 51.82c.55-4.13.87-4.91-1.14-7.62-2.37-.65-3.84-.98-6.07-2.01l-1.4-.66c-19.07-1.12-25-8.55-30.42-25.7-.71-14.25.88-21.8 5.55-35.08 2.81-5.46 5.68-10.88 8.6-16.28l3.97-4.88 2.81-3.62c20.3-22.37 52.14-33.09 61.32 4.66l.41 1.69c3.37 7.61 1.6 19.01 3.79 22.29l1.61.53c1.98-4.05 7.2-18.07 7.68-22.23 5.67-23.96-2.45-47.93.39-59.72m-58.83 73.34c6.14-9.92 6.78-18.25-7.21-19.48-5.66 5.41-4.15 8.88-10.14 12.53-.15.2-.31.4-.46.6-.84 6.74-1.11 8.27 3.85 13.32 7.29.45 9.82-1.37 13.96-6.97"/><path fill="#fefefe" d="M1438.47 1308.91c9.95 34.44 6.18 65.34-11.24 96.81a163.95 163.95 0 0 1-45.86 51.82c.55-4.13.87-4.91-1.14-7.62-2.37-.65-3.84-.98-6.07-2.01l-1.4-.66c.34-.09.68-.17 1.01-.26l1.67-.48c33.03-9.22 49.94-46.38 49.56-78.47 3.37 7.61 1.6 19.01 3.79 22.29l1.61.53c1.98-4.05 7.2-18.07 7.68-22.23 5.67-23.96-2.45-47.93.39-59.72"/><path fill="#fefefe" fill-opacity=".145" d="M1361.83 1375.9c.15-.2.31-.4.46-.6 5.99-3.65 4.48-7.12 10.14-12.53 1.7 5.54 4.13 15.06 7.21 19.48-4.14 5.6-6.67 7.42-13.96 6.97l2.65-1c-.59-5.93-1.86-8.58-6.5-12.32"/><path fill="#fefefe" fill-opacity=".008" d="M1361.83 1375.9c4.64 3.74 5.91 6.39 6.5 12.32l-2.65 1c-4.96-5.05-4.69-6.58-3.85-13.32"/><path fill="#fefefe" fill-opacity=".443" d="M1370.17 1259.42c9.84-1.09 15.15.22 24.58 2.29.36 5.62-1.47 6.74-6.13 9.5 5.96 6.05 26.62 16.24 35.04 17.21l.35-.17.98-5.41c1.64 2.29 3.52 4.82 5.05 7.15-.18 20.84-13.85 9.09-20.98-.12-4.21-1.34-4.05-1.39-8.4-1.23-.33 1.69-.28.85-.17 2.51-23.6-8.5-38.18-9.82-59.05 6.96-4.44 3.57-9.48 8.02-15.25 5.12-9.57-4.81-19 7.68-25.06 12.09-2.48 1.81-14.94 12.7-15.73 12.89.47-6.87 7.55-9.49 4.41-13.97l-1.09-.3c1.16-2.67.96-3.49 1.26-6.44l8.65-9.3c-.76 3.29-.88 4.05-1.12 7.41 4.41-.59 43.26-24.23 47.86-28.35 4.3-3.77 5.98-6.14 11.89-6.73-1.71-2.89-1.77-1.7-1.4-4.11 5.73.46 12.06-1.62 16.06-5.84z"/><path fill="#fefefe" fill-opacity=".576" d="M1342.34 1421.55c-.37 3.97.02 6.83-3.89 8.65-4.78-5.16 1.17-10.62-1.11-17.5-1.24-1.16-4.02-3.73-4.3-5.44-1.73-13.4 1.72-30.24 6.4-42.83 3.55-9.57 10.71-17.28 21.05-11.46 2.54 2.97 2.33 4.8 2.78 8.72l-2.81 3.62c-1.15-3.67-2.38-8.07-5.15-10.47l-1.45 1.86c-8.73 7.34-13.99 19.96-5.97 29.77-4.67 13.28-6.26 20.83-5.55 35.08M1289.98 1307.5c-.3 2.95-.1 3.77-1.26 6.44-11.83 15.8 1 28.21-13.15 32.81-2.03 2.7-4.71 7.4-7.24 8.21-2.48-2.2-2.58-5.77-3.17-9.2 5.27-13.27 15.85-27.24 24.82-38.26"/><path fill="#fefefe" fill-opacity=".059" d="M1394.75 1261.71c10.62 3.95 15.95 6.31 24.23 14.48l-3.62 1.46c-1.24 4.86 4.91 7.73 8.65 10.6l-.35.17c-8.42-.97-29.08-11.16-35.04-17.21 4.66-2.76 6.49-3.88 6.13-9.5"/><path fill="#fefefe" fill-opacity=".259" d="m1340.56 1274.81 1.9-.87c1.94 1.73 1.44 1.13 2.91 3.32-4.6 4.12-43.45 27.76-47.86 28.35.24-3.36.36-4.12 1.12-7.41l9.03-8.16c.08 1.47.15 2.94.2 4.41l-.63-.51 1.37.45c8.3-3.16 17.84-6.43 22.62-13.86 4.5-2.11 5.54-2.58 9.34-5.72"/><path fill="#fefefe" fill-opacity=".149" d="M1337.05 1270.18c11.61-6.09 20.12-8.76 33.12-10.76l1.75 1.16c-4 4.22-10.33 6.3-16.06 5.84-.37 2.41-.31 1.22 1.4 4.11-5.91.59-7.59 2.96-11.89 6.73-1.47-2.19-.97-1.59-2.91-3.32l-1.9.87z"/><path fill="#fefefe" fill-opacity=".4" d="M1353.86 1356.7c.89 5.02.55 5.91-.75 10.9.89 1.68 1 2.45 3.38 2.59-2.92 5.4-5.79 10.82-8.6 16.28-8.02-9.81-2.76-22.43 5.97-29.77"/><path fill="#fefefe" fill-opacity=".443" d="M1257.21 1363.79c4.8-1.34 3.27-1.64 7.41-.29 5.3 5.39 3.74 16.77-4.98 18.14l-2.89-1.24c-.52-5.3.36-5.25-2.41-8.64z"/><path fill="#fefefe" fill-opacity=".808" d="m1424.59 1366.35 3.54 3c.78 3.81.55 5.77 4.65 6.3 2.87-2.1 3.05-3.49 4.35-6.79l.95-.23c-.48 4.16-5.7 18.18-7.68 22.23l-1.61-.53c-2.19-3.28-.42-14.68-3.79-22.29z"/><path fill="#fefefe" fill-opacity=".573" d="M1428.13 1369.35c-.66-4.64-.98-7.14 3.34-9.52l2.66.82c2.75 2.9 2.52 4.23 3 8.21-1.3 3.3-1.48 4.69-4.35 6.79-4.1-.53-3.87-2.49-4.65-6.3"/><path fill="#fefefe" fill-opacity=".157" d="m1330.23 1278.8.99 1.73c-4.78 7.43-14.32 10.7-22.62 13.86l-1.37-.45.63.51c-.05-1.47-.12-2.94-.2-4.41 1.72-1.6 4.94-4.04 6.88-5.6 8.25 3.85 10.81.18 15.69-5.64"/><path fill="#fefefe" fill-opacity=".012" d="m1327.39 1275.29 2.84 3.51c-4.88 5.82-7.44 9.49-15.69 5.64 3.27-2.83 9.13-6.59 12.85-9.15"/><path fill="#fefefe" fill-opacity=".286" d="m1353.86 1356.7 1.45-1.86c2.77 2.4 4 6.8 5.15 10.47l-3.97 4.88c-2.38-.14-2.49-.91-3.38-2.59 1.3-4.99 1.64-5.88.75-10.9"/><path fill="#fefefe" fill-opacity=".027" d="m1337.05 1270.18 3.51 4.63c-3.8 3.14-4.84 3.61-9.34 5.72l-.99-1.73-2.84-3.51c3.1-1.74 6.49-3.45 9.66-5.11"/><path fill="#fefefe" fill-opacity=".165" d="m1418.98 1276.19 6.01 6.65-.98 5.41c-3.74-2.87-9.89-5.74-8.65-10.6z"/><path fill="#1d1a1b" d="M1566.19 1134.95c12.73.42 22.74 16.93 31.29 26.21a201.3 201.3 0 0 0 32.58 28.29c28.03 19.87 56.62 28.2 89.15 37.03 5.03 1.36 10.77 3.09 13.26 7.65l-.86 2.33c-3.35 2.87-3.98 2.74-8.49 3.66-60.14 2.87-125.92-31.67-164.12-79.87-8.36-10.55-4.08-19.15 7.19-25.3M1425.59 1134.05c24.17-1.28 20.87 17.73 7.77 31.11-39.54 40.41-88.02 66.14-145.06 67.91-6.97.09-18.93 1.16-19.05-8.11 4.62-3.61 19.49-6.71 25.75-8.45 41.35-11.51 78.46-29.8 108.58-61.05 6.01-6.23 15.02-16.4 22.01-21.41"/><path fill="#1d1a1b" fill-opacity=".988" d="m1765.43 1794.69 1.11 1.17c11.95 52.78-41.31 102.84-94.7 91.34-2.12-.92-2.32-1.12-4.2-2.5 1.19-2.07 7.36-2.04 10.84-2.56 15.61-2.51 30.48-8.43 43.54-17.35 25.19-17.32 38.03-40.7 43.41-70.1m-41.64 81.56c6.16-1.28 14.82-8.35 16.06-14.69-.28-.75-1.55-4.14-2-4.58-6.51 3.11-23.85 11.38-14.06 19.27"/><path fill="#1d1a1b" fill-opacity=".847" d="M1737.85 1856.98c.45.44 1.72 3.83 2 4.58-1.24 6.34-9.9 13.41-16.06 14.69-9.79-7.89 7.55-16.16 14.06-19.27"/><path fill="#1d1a1b" d="M1495.57 78.199c252.73-11.375 466.88 184.165 478.47 436.884s-183.77 467.038-436.48 478.842c-253.01 11.815-467.65-183.826-479.25-436.849-11.6-253.022 184.22-467.489 437.26-478.877m39.95 894.28c241.07-10.776 427.72-215.003 416.83-456.07-10.9-241.068-215.23-427.618-456.29-416.595-240.89 11.015-427.27 215.158-416.38 456.05s214.94 427.383 455.84 416.615"/><path fill="#6bb8e5" d="M1496.06 99.814c241.06-11.023 445.39 175.527 456.29 416.595 10.89 241.067-175.76 445.294-416.83 456.07-240.9 10.768-444.95-175.723-455.84-416.615s175.49-445.035 416.38-456.05m280.07 629.055c26.6-39.773 48.78-79.857 55.27-128.231 2.11-15.712 6.65-44.294-8.62-53.979-21.21-13.449-65.98 20.012-84.38 30.08-17.8 9.523-35.81 18.64-54.02 27.344-107.2 50.33-240.64 73.466-356.17 40.858-27.13-7.656-52.61-17.419-76.67-32.39a216 216 0 0 1-49.34-42.122c-11.13-13.086-13.67-32.028-25.77-35.866-16.15 26.88-6.54 103.826.27 132.816 39.69 169.231 207.69 263.368 374.05 220.492 87.63-22.586 175.57-82.124 225.38-159.002M1374.55 473.2c49.44-10.268 72.57-94.313 22.81-97.849-54.37 6.664-74.74 98.112-22.81 97.849"/><path fill="#1d1a1b" d="M1176.43 534.563c12.1 3.838 14.64 22.78 25.77 35.866a216 216 0 0 0 49.34 42.122c24.06 14.971 49.54 24.734 76.67 32.39 115.53 32.608 248.97 9.472 356.17-40.858a1334 1334 0 0 0 54.02-27.344c18.4-10.068 63.17-43.529 84.38-30.08 15.27 9.685 10.73 38.267 8.62 53.979-6.49 48.374-28.67 88.458-55.27 128.231-49.81 76.878-137.75 136.416-225.38 159.002-166.36 42.876-334.36-51.261-374.05-220.492-6.81-28.99-16.42-105.936-.27-132.816m39.65 77.381c-1.78-5.028-19.82-24.186-25.04-25.698l-.99.964c-1.72 5.883.32 17.07 1.2 23.315 1.37 29.053 4.03 51.106 27.02 69.795 14.68 11.933 27.84 23.005 44.82 31.909 65.05 39.226 139.28 48.593 213.61 45.079 123.25-5.828 248.56-60.039 323.2-160.826 5.23-7.062 15.91-21.466 8.44-29.426-9.4-2.512-48.92 22.52-60.11 28.63a713.8 713.8 0 0 1-197.8 74.333c-68.6 14.504-149.38 14.903-217.67-2.416-36.97-9.374-86.77-31.226-114.8-56.72l-1.52-.228zm18.2 93.174c-9.73-8.65-20.52-17.658-29.75-26.684 2.47 7.455 10.58 32.206 14.81 37.611 8.08 4.189 2.52 10.731 11.61 14.303l1.35-.96c.63-2.918.7-3.106 1.94-5.825 2.46-1.394 3.52-1.618 4.89-4.033-.5-1.263-.96-1.184-2.43-2.274l.03-1.741 1.38-1.143 3.43 2.275.17-1.33c-2.69-2.474-7.13-6.445-7.43-10.199"/><path fill="#fefefe" d="M1234.28 705.118c167.11 120.999 453.45 62.02 571.79-102.967 1.03-1.426 2.03-2.877 2.99-4.35-36.26 175.605-217.93 308.034-396.68 271.465a274.12 274.12 0 0 1-174.11-118.81c-7.1-10.77-13.91-22.502-18.93-34.411 8.08 4.189 2.52 10.731 11.61 14.303l1.35-.96c.63-2.918.7-3.106 1.94-5.825 2.46-1.394 3.52-1.618 4.89-4.033-.5-1.263-.96-1.184-2.43-2.274l.03-1.741 1.38-1.143 3.43 2.275.17-1.33c-2.69-2.474-7.13-6.445-7.43-10.199"/><path fill="url(#g)" d="m1216.08 611.944.36-1.289 1.52.228c28.03 25.494 77.83 47.346 114.8 56.72 68.29 17.319 149.07 16.92 217.67 2.416a713.8 713.8 0 0 0 197.8-74.333c11.19-6.11 50.71-31.142 60.11-28.63 7.47 7.96-3.21 22.364-8.44 29.426-74.64 100.787-199.95 154.998-323.2 160.826-74.33 3.514-148.56-5.853-213.61-45.079-16.98-8.904-30.14-19.976-44.82-31.909-22.99-18.689-25.65-40.742-27.02-69.795 2.24 3.134 3.39 5.428 5.07 8.919 5.31-1.654 2.53-6.551 7.6-8.829 5.66 3.297 6.02 5.454 12.16 1.329"/><path fill="#fefefe" fill-opacity=".612" d="M1204.53 678.434c9.23 9.026 20.02 18.034 29.75 26.684.3 3.754 4.74 7.725 7.43 10.199l-.17 1.33-3.43-2.275-1.38 1.143-.03 1.741c1.47 1.09 1.93 1.011 2.43 2.274-1.37 2.415-2.43 2.639-4.89 4.033-1.24 2.719-1.31 2.907-1.94 5.825l-1.35.96c-9.09-3.572-3.53-10.114-11.61-14.303-4.23-5.405-12.34-30.156-14.81-37.611"/><path fill="#1d1a1b" d="M1605.57 274.371c23-3.543 49.48 6.164 66.34 21.801 58.36 54.15 46.35 158.482-3.75 213.996-25.37 28.121-55.16 44.076-93.09 45.872-44.5.12-81.08-20.979-98.57-62.75-35.75-85.414 38.57-208.032 129.07-218.919"/><path fill="#fefefe" d="M1604.59 295.367c52.94-7.081 86.6 43.152 90.05 90.483 5.39 73.884-42.08 152.006-120.39 158.851-20.38.863-41.16-4.84-57.55-17.269-44.28-33.232-38.74-101.529-17.63-146.406 19.89-42.279 57.65-79.613 105.52-85.659"/><path fill="#1d1a1b" d="M1553.31 394.237c51.25-3.436 42.92 91.432-13.76 106.881-58.32.405-38.71-97.616 13.76-106.881"/><path fill="#fefefe" d="M1543.58 408.922c18.18 3.287 8.3 20.225-4.83 24.738-20.74-3.635-8.73-19.52 4.83-24.738"/><path fill="#1d1a1b" d="M1366.69 266.406c46.65-1.936 77.24 27.634 86.98 71.808 18.9 85.633-44.84 176.778-132.87 184.366-47.35 4.409-85.86-31.484-90.26-77.764-7.21-75.695 58.24-170.925 136.15-178.41m7.86 206.794c49.44-10.268 72.57-94.313 22.81-97.849-54.37 6.664-74.74 98.112-22.81 97.849"/><path fill="#fefefe" d="M1361.56 287.186c64.01-5.963 88.21 53.676 79.08 108.68-3.04 18.295-12.3 39.466-22.84 54.656a140.97 140.97 0 0 1-89.57 58.996c-17.29 2.139-37.71-.561-52.37-10.162-48.78-31.935-28.93-107.882-2.34-147.414 21.88-32.513 49.94-56.565 88.04-64.756m12.99 186.014c49.44-10.268 72.57-94.313 22.81-97.849-54.37 6.664-74.74 98.112-22.81 97.849"/><path fill="#1d1a1b" d="M1397.36 375.351c49.76 3.536 26.63 87.581-22.81 97.849-51.93.263-31.56-91.185 22.81-97.849m-28.61 38.165c7.71-2.426 14.3-6.96 12.89-16.168-1.45-.915-2.1-1.726-3.31-1.677-7.58 1.586-10.42 1.485-15.23 7.562-.78 5.168 1 7.731 5.65 10.283M1432.37 161.951c22.84 1.137 17.74 24.418 4.3 36.129-41.12 35.832-96.44 63.501-151.9 62.777-7.63-1.055-10.82-1.752-18.23-3.901 47.23-15.958 83.27-28.217 123.64-59.755 12.47-9.737 30.66-29.149 42.19-35.25M1575.4 166.866c9.73 2.017 19.71 15.155 26.69 22.351 32.56 33.577 93.17 61.391 138.36 73.327l-16.65 1.031a175.1 175.1 0 0 1-76.09-10.875c-28.14-10.485-69.1-33.619-84.72-61.66-5.66-10.165 2.52-19.959 12.41-24.174M1798.35 493.208c37.87-3.688 61.64 23.16 65.6 58.956 1.67 15.059-3.89 30.158-9.62 43.863 2.4-20.649 3.83-29.95-4.29-49.529-23.76-47.596-60.73-44.368-102.87-24.34 14.02-16.557 30.28-24.708 51.18-28.95M1185.13 494.328c6.37-.554 15.51-.339 18.66 6.369-28.66-2.482-52.99 25.444-62.14 50.224-.9 4.362-2.06 9.434-2.6 13.796l-.23 1.996-1.14-.478c-.44-1.075-.85-1.982-1.02-3.141-4.72-32.116 16.39-63.275 48.47-68.766M507.166 79.29c252.153-13.536 467.628 179.704 481.527 431.837 13.897 252.134-179.027 467.888-431.14 482.152-252.63 14.291-468.922-179.115-482.85-431.765S254.496 92.852 507.166 79.289m35.347 893.282c240.594-6.009 430.848-205.769 425.128-446.37-5.72-240.602-205.252-431.095-445.86-425.664-241.016 5.441-431.904 205.385-426.174 446.395 5.729 241.01 205.903 431.658 446.906 425.639"/><path fill="#fed94e" d="M521.781 100.538c240.608-5.431 440.14 185.062 445.86 425.664s-184.534 440.361-425.128 446.37C301.51 978.591 101.336 787.943 95.607 546.933c-5.73-241.01 185.158-440.954 426.174-446.395M340.004 721.802c16.094 31.009 22.905 54.937 12.872 90.065-3.695 12.938-14.299 21.407-13.843 30.702 7.683 13.265 49.5 26.462 63.806 30.36 65.336 17.777 143.56 2.599 201.16-32.025 70.844-42.585 137.386-113.36 160.891-193.842 5.484-18.78 7.532-53.108-20.676-51.925-27.189 6.961-64.176 37.78-89.427 52.501-121.763 70.986-259.13 58.046-374.442-19.054-6.872-4.596-43.969-26.468-50.364-26.354-2.18 5.372 24.568 28.13 29.294 32.321 30.144 26.729 60.288 51.72 80.729 87.251M588.625 543.7c86.098-4.639 134.995-90.807 121.961-171.122-6.651-40.983-35.096-82.175-81.014-80.168-127.562 10.396-185.593 242.724-40.947 251.29"/><path fill="#1d1a1b" d="M744.214 595.137c28.208-1.183 26.16 33.145 20.676 51.925-23.505 80.482-90.047 151.257-160.891 193.842-57.6 34.624-135.824 49.802-201.16 32.025-14.306-3.898-56.123-17.095-63.806-30.36-.456-9.295 10.148-17.764 13.843-30.702 10.033-35.128 3.222-59.056-12.872-90.065-20.441-35.531-50.585-60.522-80.729-87.251-4.726-4.191-31.474-26.949-29.294-32.321 6.395-.114 43.492 21.758 50.364 26.354 115.312 77.1 252.679 90.04 374.442 19.054 25.251-14.721 62.238-45.54 89.427-52.501M378.868 700.878c-4.405-4.122-21.53-10.151-28.034-12.675-2.728 2.131-3.606 2.435-4.465 5.79 4.098 6.057 12.854 21.651 19.734 22.505-2.522.609-1.281.201-3.718 1.238 8.822 18.214 13.203 29.416 16.204 49.24 76.91 18.035 153.853 17.934 227.17-14.631 47.285-21.003 101.831-60.149 129.712-104.005-.969-3.263-1.246-6.746-1.688-10.159 3.273-3.67 4.672-5.783 3.39-10.825-2.547-3.111-.916-2.058-5.376-2.739l-3.878-.642c-23.16 15.877-42.875 31.196-67.756 44.962a364.97 364.97 0 0 1-241.381 40.245c-5.46-1.014-37.725-9.409-39.914-8.304m-.247 94.34c-4.822 19.053-6.739 25.895-17.405 42.451 13.55 5.313 44.541 17.134 58.36 17.328 6.104-1.777 34.866-.387 43.367-.534 13.088-.227 26.365-1.395 39.556-2.28-.088.006 5.156 1.136 8.165 1.161l.967.001c12.297-1.183 36.009-9.799 48.272-14.526 74.922-28.883 148.236-105.548 179.722-179.091-36.763 47.485-78.3 80.66-133.539 104.328-69.775 29.895-155.545 37.486-226.858 9.187l-.026 10.738z"/><path fill="url(#h)" d="m727.919 623.975 3.878.642c-3.208 1.887-5.783 2.824-7.316 6.089l.36 2.301c3.426 2.24 4.037 1.437 8.21.38 2.508 3.961-1.199.507.732 4.794.442 3.413.719 6.896 1.688 10.159-27.881 43.856-82.427 83.002-129.712 104.005-73.317 32.565-150.26 32.666-227.17 14.631-3.001-19.824-7.382-31.026-16.204-49.24 2.437-1.037 1.196-.629 3.718-1.238 1.183-2.938 2.278-6.943 3.23-10.037 3.524-1.876 6.166-3.439 9.535-5.583 2.189-1.105 34.454 7.29 39.914 8.304a364.97 364.97 0 0 0 241.381-40.245c24.881-13.766 44.596-29.085 67.756-44.962"/><path fill="url(#i)" d="M379.228 773.243c71.313 28.299 157.083 20.708 226.858-9.187 55.239-23.668 96.776-56.843 133.539-104.328-31.486 73.543-104.8 150.208-179.722 179.091-12.263 4.727-35.975 13.343-48.272 14.526l-.967-.001c-3.009-.025-8.253-1.155-8.165-1.161-13.191.885-26.468 2.053-39.556 2.28-8.501.147-37.263-1.243-43.367.534-13.819-.194-44.81-12.015-58.36-17.328 10.666-16.556 12.583-23.398 17.405-42.451l.649 1.01c4.736-2.125 8.243-8.447 4.025-12.971-2.531.164-1.82.018-4.093.724zm.436 67.635 2.38.106c1.764-2.345 1.26-.987.777-4.436-3.648-5.07-4.562-5.393-10.752-6.8-3.606 2.552-4.559 2.321-6.059 5.721 2.399 2.381 9.356 3.815 13.654 5.409"/><path fill="#fefefe" fill-opacity=".678" d="M372.069 829.748c6.19 1.407 7.104 1.73 10.752 6.8.483 3.449.987 2.091-.777 4.436l-2.38-.106c-4.298-1.594-11.255-3.028-13.654-5.409 1.5-3.4 2.453-3.169 6.059-5.721"/><path fill="#fefefe" d="M419.576 854.997c6.104-1.777 34.866-.387 43.367-.534 13.088-.227 26.365-1.395 39.556-2.28-.088.006 5.156 1.136 8.165 1.161l.967.001c-18.62 6.353-72.645 7.142-92.055 1.652M727.919 623.975c5.658-3.88 12.323-10.514 18.311-4.831 1.776 5.875-.602 12.066-3.39 17.293a109 109 0 0 1-7.369 11.903c-.969-3.263-1.246-6.746-1.688-10.159 3.273-3.67 4.672-5.783 3.39-10.825-2.547-3.111-.916-2.058-5.376-2.739z"/><path fill="#fefefe" fill-opacity=".824" d="M731.797 624.617c4.46.681 2.829-.372 5.376 2.739 1.282 5.042-.117 7.155-3.39 10.825-1.931-4.287 1.776-.833-.732-4.794-4.173 1.057-4.784 1.86-8.21-.38l-.36-2.301c1.533-3.265 4.108-4.202 7.316-6.089"/><path fill="#fefefe" fill-opacity=".988" d="M379.202 783.981c2.273-.706 1.562-.56 4.093-.724 4.218 4.524.711 10.846-4.025 12.971l-.649-1.01z"/><path fill="#fefefe" d="m335.423 681.385 15.411 6.818c-2.728 2.131-3.606 2.435-4.465 5.79-.544-.384-9.852-11.332-10.946-12.608"/><path fill="#1d1a1b" d="M631.375 271.402c1.602-.195 3.9-.302 5.526-.272 61.845 1.438 91.5 69.765 91.376 123.721-.188 81.82-53.341 160.829-140.757 161.002-22.109-1.905-41.227-7.737-58.488-21.952-63.931-52.648-42.636-150.389 3.97-206.684 26.523-32.037 57.692-51.692 98.373-55.815M588.625 543.7c86.098-4.639 134.995-90.807 121.961-171.122-6.651-40.983-35.096-82.175-81.014-80.168-127.562 10.396-185.593 242.724-40.947 251.29"/><path fill="#fefefe" d="M629.572 292.41c45.918-2.007 74.363 39.185 81.014 80.168 13.034 80.315-35.863 166.483-121.961 171.122-144.646-8.566-86.615-240.894 40.947-251.29m-113.86 172.837c.466-7.721 2.085-19.478-1.065-26.075l-1.712-1.272c-.875 2.519-.562 1.735-.349 4.654l-1.488-.458c-1.431-2.846-.489-2.862-1.65-5.225-3.062 7.59-3.72 27.926 4.017 32.402l1.609-.982z"/><path fill="#1d1a1b" d="M566.278 396.218c57.246-3.432 46.068 88.14-7.233 103.563-52.017 10.402-52.82-91.964 7.233-103.563"/><path fill="#fefefe" d="M555.236 409.947c16.886 2.89 8.212 21.703-4.613 26.397-17.482-4.565-6.072-20.67 4.613-26.397"/><path fill="url(#j)" d="M509.448 436.871c1.161 2.363.219 2.379 1.65 5.225l1.488.458c-.213-2.919-.526-2.135.349-4.654l1.712 1.272c3.15 6.597 1.531 18.354 1.065 26.075l-.638 3.044-1.609.982c-7.737-4.476-7.079-24.812-4.017-32.402"/><path fill="#1d1a1b" d="M391.621 265.385a73.14 73.14 0 0 1 52.583 17.311c22.277 18.964 32.601 48.496 35.288 77.043 7.476 79.408-55.632 159.181-136.967 165.246-51.408.978-84.223-32.66-90.08-82.624-9.369-79.938 58.781-168.309 139.176-176.976"/><path fill="#fefefe" d="M387.717 285.326c45.758-3.04 69.78 33.7 76.272 74.811 10.948 69.338-45.716 142.948-114.909 152.893-18.836.342-36.225-1.341-51.461-12.928-50.544-38.44-28.968-115.839 3.471-158.441 22.685-29.792 50.046-50.757 86.627-56.335"/><path fill="#1d1a1b" d="M420.761 376.2c52.194-4.389 32.711 84.275-16.855 98.826-51.999 8.463-39.82-86.085 16.855-98.826"/><path fill="#fefefe" d="M405.435 392.024c16.835-1.569 14.758 15.376 1.11 22.616-4.253.475-6.356.089-9.615-2.703-4.427-8.027 2.326-15.411 8.505-19.913"/><path fill="#1d1a1b" d="M586.508 165.04c11.26.223 18.327 13.166 25.863 21.481a189.7 189.7 0 0 0 32.674 28.635c35.022 24.307 69.849 35.497 109.659 49.012l-16.468 2.747c-32.201 1.696-58.79-3.211-88.813-17.61-26.783-13.514-61.493-33.82-74.691-62.02-4.731-10.11 1.599-19.076 11.776-22.245M445.881 158.105c5.418.473 11.562 2.344 14.644 6.786 11.685 16.845-21.605 43.626-30.814 50.877-34.827 27.424-83.389 48.148-127.954 43.045-3.895-.414-13.874-1.43-14.929-5.516 2.416-1.698 32.237-9.248 38.287-11.392a281.4 281.4 0 0 0 50.512-23.857 238.2 238.2 0 0 0 36.046-27.188c10.56-9.503 25.183-28.857 34.208-32.755M762.876 559.421c47.686 1.946 73.646 37.801 79.331 82.167-7.309-14.086-12.381-21.132-22.987-32.866-21.411-22.165-55.224-43.664-87.153-32.884-6.106 2.062-11.928 4.979-17.73 7.782 16.504-16.149 25.156-22.366 48.539-24.199M256.192 570.186c14.041-1.913 22.951 2.255 34.941 8.207-48.058-6.215-75.162 22.869-84.847 67.733-1.961 13.166-1.488 20.343-.395 33.73a137 137 0 0 1-3.202-11.177c-9.892-41.44 9.14-88.612 53.503-98.493M516.369 1054.93c252.443-8.46 463.98 189.26 472.561 441.7S799.89 1960.7 547.455 1969.4c-252.605 8.71-464.407-189.07-472.994-441.68s189.296-464.32 441.908-472.79m41.04 891.83c240.475-14.08 423.894-220.62 409.458-461.07s-221.249-423.57-461.681-408.77c-239.928 14.76-422.572 221.04-408.166 460.99 14.405 239.95 220.418 422.9 460.389 408.85"/><path fill="#a95ea2" d="M505.186 1076.92c240.432-14.8 447.245 168.32 461.681 408.77s-168.983 446.99-409.458 461.07c-239.971 14.05-445.984-168.9-460.39-408.85-14.405-239.95 168.239-446.23 408.167-460.99m91.58 447.2c39.091-4.11 68.519-20.08 93.458-50.67a166.48 166.48 0 0 0 36.59-123.26c-3.526-31.57-18.269-67.29-43.696-87.35-16.909-13.34-39.061-22-60.808-19.48-111.666 13.18-192.756 199.85-81.81 268.36 16.313 10.07 37.257 13.4 56.266 12.4m-252.518-41.54c73.55-8.23 125.715-80.35 118.55-152.56-3.929-39.59-32.458-78.42-76.209-71.66-35.631 4.83-63.743 26.48-85.158 54.52-23.17 30.34-37.783 69.42-32.934 107.92 5.165 41.01 34.118 65.54 75.751 61.78m460.463 163.57c64.577-1.73 56.736-61.11 46.912-106.86-3.999-18.63-9.353-36.85-15.203-54.93-7.24-22.37-13.38-45.9-24.207-66.71-.4-.77-4.635-1.87-5.32-2.06-3.794 5.33-6.123 11.99-8.752 18.09-17.056 39.56-32.435 78.16-40.373 120.78-6.647 35.7-14.495 79.79 32.697 90.21 4.694 1.03 9.42 1.45 14.246 1.48"/><path fill="#1d1a1b" d="M622.31 1243.36c21.747-2.52 43.899 6.14 60.808 19.48 25.427 20.06 40.17 55.78 43.696 87.35a166.48 166.48 0 0 1-36.59 123.26c-24.939 30.59-54.367 46.56-93.458 50.67-19.009 1-39.953-2.33-56.266-12.4-110.946-68.51-29.856-255.18 81.81-268.36m-67.772 230.24c-4.752-.41-9.547-1.03-14.289-1.6-23.429-15.75-23.16-35.7-20.105-61.15 3.915-8.44 8.418-19.68 14.522-26.21 48.337-51.68 82.39 15.99 57.407 59.35-9.482 16.45-18.197 23.79-36.265 29.23zm-50.49-45.02c-1.464 19.04 10.447 40.47 22.325 54.61 1.716 2.19 2.701 3.76 5.031 5.31 20.094 21.88 56.966 28.24 84.642 20.45 24.423-6.88 48.681-23.22 63.693-43.64 1.444-1.34 1.171-.95 2.161-2.25a147.54 147.54 0 0 0 28.803-110.21c-1.795-24.96-16.77-53.97-35.55-70.31-42.798-37.23-97.573-12.68-130.154 25.51-26.637 31.21-42.898 71.51-42.135 113.08.059 2.14.604 5.4 1.184 7.45m51.063-21.37c13.752-7.03 18.797-27.29-.967-26.22-14.406 8.52-19.159 26.24.967 26.22"/><path fill="url(#k)" d="M504.048 1428.58c-.58-2.05-1.125-5.31-1.184-7.45-.763-41.57 15.498-81.87 42.135-113.08 32.581-38.19 87.356-62.74 130.154-25.51 18.78 16.34 33.755 45.35 35.55 70.31l-.148 1.18c-1.109 9.57.838 20.11-.198 28.73-1.467 12.21-8.28 26.11-9.349 39.01-.168 1.25-5.095 6.92-6.059 8.09 1.681.78.741.56 3.169-.28-1.152 8.16-14.11 27.14-19.3 34.25l.921 1.48c-15.012 20.42-39.27 36.76-63.693 43.64-27.676 7.79-64.548 1.43-84.642-20.45 6.028-.15 6.747 5.84 15.036 7.03 5.19-2.71 8.455-13.06 6.303-18.11-2.714-1.17-2.939-.99-4.808-3.19 2.783.19 3.847-.18 6.603-.63l1.27-.38c18.068-5.44 26.783-12.78 36.265-29.23 24.983-43.36-9.07-111.03-57.407-59.35-6.104 6.53-10.607 17.77-14.522 26.21-2.323-5.28-3.614-13.6-11.496-11.24-5.785 8.33.15 25.44-4.6 28.97m202.21-39.02c2.841-7.06 5.106-27.54-.255-32.96-4.284 6.65-5.234 27.02.255 32.96"/><path fill="#fefefe" fill-opacity=".604" d="M706.003 1356.6c5.361 5.42 3.096 25.9.255 32.96-5.489-5.94-4.539-26.31-.255-32.96"/><path fill="#1d1a1b" d="M520.144 1410.85c3.915-8.44 8.418-19.68 14.522-26.21 48.337-51.68 82.39 15.99 57.407 59.35-9.482 16.45-18.197 23.79-36.265 29.23l-1.27.38c-4.752-.41-9.547-1.03-14.289-1.6-23.429-15.75-23.16-35.7-20.105-61.15m34.967-3.64c13.752-7.03 18.797-27.29-.967-26.22-14.406 8.52-19.159 26.24.967 26.22"/><path fill="#fefefe" fill-opacity=".804" d="M554.144 1380.99c19.764-1.07 14.719 19.19.967 26.22-20.126.02-15.373-17.7-.967-26.22m-.359 24.32c.515-6.31-.773-11.12-7.374-13.12-1.257 5.94-.438 11.31 5.516 14.02z"/><path fill="#fefefe" fill-opacity=".631" d="M546.411 1392.19c6.601 2 7.889 6.81 7.374 13.12l-1.858.9c-5.954-2.71-6.773-8.08-5.516-14.02"/><path fill="#fefefe" fill-opacity=".788" d="M540.249 1472c4.742.57 9.537 1.19 14.289 1.6-2.756.45-3.82.82-6.603.63 1.869 2.2 2.094 2.02 4.808 3.19 2.152 5.05-1.113 15.4-6.303 18.11-8.289-1.19-9.008-7.18-15.036-7.03-2.33-1.55-3.315-3.12-5.031-5.31l3.936-.66c3.34-3.11 7.765-6.69 9.94-10.53"/><path fill="#fefefe" fill-opacity=".988" d="M710.703 1352.85a147.54 147.54 0 0 1-28.803 110.21c-.99 1.3-.717.91-2.161 2.25l-.921-1.48c5.19-7.11 18.148-26.09 19.3-34.25-2.428.84-1.488 1.06-3.169.28.964-1.17 5.891-6.84 6.059-8.09 1.069-12.9 7.882-26.8 9.349-39.01 1.036-8.62-.911-19.16.198-28.73z"/><path fill="#1d1a1b" d="M384.583 1238.37c50.046-4.87 86.155 39.63 91.629 85.84 4.797 40.49-7.572 79.56-32.669 111.4-26.686 33.86-56.255 53.9-99.292 59.37-52.47 1.71-88.669-26.64-95.24-80.21-9.227-75.22 59.039-167.85 135.572-176.4m-40.335 244.21c73.55-8.23 125.715-80.35 118.55-152.56-3.929-39.59-32.458-78.42-76.209-71.66-35.631 4.83-63.743 26.48-85.158 54.52-23.17 30.34-37.783 69.42-32.934 107.92 5.165 41.01 34.118 65.54 75.751 61.78"/><path fill="url(#l)" d="M386.589 1258.36c43.751-6.76 72.28 32.07 76.209 71.66 7.165 72.21-45 144.33-118.55 152.56-41.633 3.76-70.586-20.77-75.751-61.78-4.849-38.5 9.764-77.58 32.934-107.92 21.415-28.04 49.527-49.69 85.158-54.52m19.685 123.81c13.782-7.87 16.259-25.76-2.192-23.21-7.092 4.76-12.77 11.63-9.32 20.56 3.799 4.18 6.469 3.6 11.512 2.65m-34.585 20.1c.829-4.33 1.897-8.61 3.197-12.82 4.897-16.07 15.599-34.17 31.029-41.87 11.438-5.7 18.202-4.34 29.194-.61l-.523-1.62c-34.968-17.28-45.907 12.46-62.04 34.18 0 9.4-3.364 16.24-.857 22.74"/><path fill="#1d1a1b" d="M371.689 1402.27c.829-4.33 1.897-8.61 3.197-12.82 4.897-16.07 15.599-34.17 31.029-41.87 11.438-5.7 18.202-4.34 29.194-.61 11.398 11.8 14.526 17.87 14.462 35.03-.098 26.17-25.959 64.1-54.404 62.17a23.3 23.3 0 0 1-16.977-8.97c-7.052-9.03-7.582-21.97-6.501-32.93m34.585-20.1c13.782-7.87 16.259-25.76-2.192-23.21-7.092 4.76-12.77 11.63-9.32 20.56 3.799 4.18 6.469 3.6 11.512 2.65"/><path fill="#fefefe" fill-opacity=".855" d="M404.082 1358.96c18.451-2.55 15.974 15.34 2.192 23.21-5.043.95-7.713 1.53-11.512-2.65-3.45-8.93 2.228-15.8 9.32-20.56"/><path fill="#fefefe" fill-opacity=".984" d="M372.546 1379.53c16.133-21.72 27.072-51.46 62.04-34.18l.523 1.62c-10.992-3.73-17.756-5.09-29.194.61-15.43 7.7-26.132 25.8-31.029 41.87-1.3 4.21-2.368 8.49-3.197 12.82-2.507-6.5.857-13.34.857-22.74"/><path fill="#1d1a1b" d="M478.63 1649.43c69.502-5.94 154.662 24.57 193.045 85.88 27.766 44.36 25.355 106.43-22.836 135.57-13.411-6.35-26.417-13.49-40.073-19.47-37.882-16.58-73.674-25.3-114.519-30.22-45.786-2.68-69.861-2.49-115.11 5.87q4.937-1.95 9.795-4.08c59.154-26.47 68.9-129.14 6.491-151.31-28.128 4.55-53.149 13.55-80.808 19.67 3.057-2.59 18.524-8.46 23.229-10.31 46.778-18.48 90.714-28.61 140.786-31.6"/><path fill="#a95ea2" d="M573.771 1777.28c14.211-1.26 24.463-1.07 37.799 4.69 27.877 12.03 40.816 40.95 27.48 69.16a744 744 0 0 0-27.566-15.07c-28.822-14.57-52.133-21.53-83.803-26.84 11.016-19.46 24.601-27.68 46.09-31.94"/><path fill="#1d1a1b" d="M806.893 1415.59c.685.19 4.92 1.29 5.32 2.06 10.827 20.81 16.967 44.34 24.207 66.71 5.85 18.08 11.204 36.3 15.203 54.93 9.824 45.75 17.665 105.13-46.912 106.86-4.826-.03-9.552-.45-14.246-1.48-47.192-10.42-39.344-54.51-32.697-90.21 7.938-42.62 23.317-81.22 40.373-120.78 2.629-6.1 4.958-12.76 8.752-18.09m30.624 198.66c8.47-16.5 4.129-49.13-.042-66.47-2.444-15.9-22.323-88.71-29.01-101.08l-1.547.3-1.619 3.66c-1.206 2.94-4.929 11.43-5.613 14.04-1.936 5.13-4.685 11.88-6.277 16.96-11.785 32.93-31.785 96.2-20.262 130.92 7.006 21.11 51.787 24.99 64.37 1.67"/><path fill="#fefefe" fill-opacity=".792" d="m805.299 1450.66 1.619-3.66 1.547-.3c6.687 12.37 26.566 85.18 29.01 101.08l-1.922-.51c-5.473-8.02-5.133-13.84-7.46-22.38l-1.155-.1c-3.146 5.83-3.603 13.92-3.956 20.48.971 2.57 1.711 3.77 3.657 5.85 9.015 9.57.269 17.62-2.138 27.84-1.864 7.9 10.057 25.71 3.551 31.45-2.849 2.52-4.128 1.14-6.474 5.95.196 3.85 1.613 4.35 5.374 5.27 5.556-1.97 3.183-5.09 10.565-7.38-12.583 23.32-57.364 19.44-64.37-1.67-11.523-34.72 8.477-97.99 20.262-130.92l1.286 5.17c-1.151 5.17-1.791 4.31-.279 8.5 3.082 2.58 1.358 1.88 5.351 2.19 2.065-1.87 1.457-.76 1.635-3.5-.19-3.45-.251-3.71.326-7.29l1.221-.35c.828 6.86 12.224 16.4 18.07 15.18.875-3.9-.786-9.59-2.546-13.16-5.438-13.35-5.183-29.88-13.174-37.74"/><path fill="#fefefe" fill-opacity=".651" d="M837.517 1614.25c-7.382 2.29-5.009 5.41-10.565 7.38-3.761-.92-5.178-1.42-5.374-5.27 2.346-4.81 3.625-3.43 6.474-5.95 6.506-5.74-5.415-23.55-3.551-31.45 2.407-10.22 11.153-18.27 2.138-27.84-1.946-2.08-2.686-3.28-3.657-5.85.353-6.56.81-14.65 3.956-20.48l1.155.1c2.327 8.54 1.987 14.36 7.46 22.38l1.922.51c4.171 17.34 8.512 49.97.042 66.47m-.087-26.49c.636-6.52 2.941-21.31-.099-26.34l-2.68-1.97c-4.229 5.99-6.468 24.42 2.779 28.31"/><path fill="#fefefe" fill-opacity=".314" d="m834.651 1559.45 2.68 1.97c3.04 5.03.735 19.82.099 26.34-9.247-3.89-7.008-22.32-2.779-28.31"/><path fill="#fefefe" fill-opacity=".404" d="M805.299 1450.66c7.991 7.86 7.736 24.39 13.174 37.74l-.313 3.53c-1.168-.47-8.187-2.57-8.512-3.01-3.087-4.73-3.369-10.89-6.408-15.73-1.632-2.59-2.185-5.54-3.554-8.49.684-2.61 4.407-11.1 5.613-14.04"/><path fill="#fefefe" fill-opacity=".761" d="M799.686 1464.7c1.369 2.95 1.922 5.9 3.554 8.49 3.039 4.84 3.321 11 6.408 15.73.325.44 7.344 2.54 8.512 3.01l.313-3.53c1.76 3.57 3.421 9.26 2.546 13.16-5.846 1.22-17.242-8.32-18.07-15.18l-1.221.35c-.577 3.58-.516 3.84-.326 7.29-.484-2.25-.985-3.28-1.858-5.43-2.773-2.29-1.216-1.71-4.849-1.76l-1.286-5.17c1.592-5.08 4.341-11.83 6.277-16.96"/><path fill="#fefefe" fill-opacity=".671" d="M794.695 1486.83c3.633.05 2.076-.53 4.849 1.76.873 2.15 1.374 3.18 1.858 5.43-.178 2.74.43 1.63-1.635 3.5-3.993-.31-2.269.39-5.351-2.19-1.512-4.19-.872-3.33.279-8.5"/><path fill="#1d1a1b" d="M587.462 1134.96c11.356-.11 29.421 26.88 39.225 35.46 22.822 19.98 43.275 32.55 71.302 43.95 9.737 3.96 46.16 12.59 50.255 17.42.658 6.32-6.266 7.32-10.994 8.12-54.119 6.19-113.357-25.66-147.131-66.24-10.019-12.03-25.874-30.34-2.657-38.71M442.101 1136.11c35.808-3.49 9.711 31.5-2.455 42.49-38.118 34.44-78.673 57.3-130.806 56.32-6.586-.98-18.321-1.03-18.997-9.08 2.554-4.45 13.142-6.08 18.245-7.23 40.611-9.18 78.116-30.29 108.841-58.17 7.872-7.14 16.238-19.2 25.172-24.33M729.381 1800.54c.464.44.928.87 1.393 1.3 11.577 32.8-13.313 69.12-39.984 86.6-17.694 11.6-34.701 16.23-55.542 12.14-2.395-.52-2.366-.54-4.542-1.69 1.163-1.41 17.206-4.79 21.57-6.22a101 101 0 0 0 21.214-9.75c32.563-19.88 47.284-46.72 55.891-82.38"/></svg>